<svg width="48" height="48" viewBox="0 0 48 48" fill="none" xmlns="http://www.w3.org/2000/svg">
<path d="M10.9 42C9.53333 42 8.375 41.525 7.425 40.575C6.475 39.625 6 38.4667 6 37.1C6 35.7333 6.475 34.575 7.425 33.625C8.375 32.675 9.53333 32.2 10.9 32.2C12.2667 32.2 13.425 32.675 14.375 33.625C15.325 34.575 15.8 35.7333 15.8 37.1C15.8 38.4667 15.325 39.625 14.375 40.575C13.425 41.525 12.2667 42 10.9 42ZM35.5 42C35.5 37.9333 34.725 34.1083 33.175 30.525C31.625 26.9417 29.5167 23.8167 26.85 21.15C24.1833 18.4833 21.0583 16.375 17.475 14.825C13.8917 13.275 10.0667 12.5 6 12.5V8C10.7 8 15.1083 8.89167 19.225 10.675C23.3417 12.4583 26.9417 14.8917 30.025 17.975C33.1083 21.0583 35.5417 24.6583 37.325 28.775C39.1083 32.8917 40 37.3 40 42H35.5ZM23.6 42C23.6 36.7333 21.9833 32.4167 18.75 29.05C15.5167 25.6833 11.2667 24 6 24V19.5C9.23333 19.5 12.2 20.0667 14.9 21.2C17.6 22.3333 19.925 23.9 21.875 25.9C23.825 27.9 25.35 30.275 26.45 33.025C27.55 35.775 28.1 38.7667 28.1 42H23.6Z" fill="#6B6F77"/>
</svg>
